<svg width="104.000244" height="26.000000" viewBox="0 0 104 26" fill="none" xmlns="http://www.w3.org/2000/svg" xmlns:xlink="http://www.w3.org/1999/xlink">
	<desc>
			Created with Pixso.
	</desc>
	<defs/>
	<path id="Vector" d="M28.77 22.6C28.91 23.59 28.54 24.54 27.85 25.14C27.73 25.25 27.59 25.35 27.44 25.43C27.31 25.51 27.17 25.57 27.03 25.62C26.7 25.74 26.35 25.78 26.01 25.76C26 25.76 25.99 25.76 25.98 25.76C25.3 25.71 24.64 25.4 24.18 24.9C23.42 24.1 23.44 23.1 23.45 22.89C23.45 22.79 23.46 22.7 23.47 22.6L15.25 22.6C15.26 22.7 15.27 22.79 15.27 22.89C15.27 23.1 15.3 24.1 14.54 24.9C14.07 25.4 13.42 25.71 12.73 25.76C12.72 25.76 12.71 25.76 12.7 25.76C12.36 25.78 12.02 25.74 11.69 25.62C11.54 25.57 11.4 25.51 11.27 25.43C11.12 25.35 10.99 25.25 10.86 25.14C10.86 25.14 10.86 25.14 10.86 25.14C10.18 24.54 9.8 23.59 9.94 22.6L6.98 22.6C7 22.53 7.02 22.45 7.04 22.38C7.41 21.02 7.78 19.67 8.15 18.31L8.39 18.3L11.22 18.17C11.34 18.17 11.44 18.06 11.44 17.94C11.43 17.81 11.33 17.71 11.2 17.72L8.51 17.84L8.27 17.85C8.41 17.35 8.54 16.86 8.67 16.37L8.91 16.39L11.18 16.57L11.2 16.57C11.32 16.57 11.42 16.48 11.43 16.37C11.44 16.24 11.34 16.13 11.22 16.12L9.03 15.94L8.8 15.92C8.93 15.42 9.07 14.92 9.2 14.42L9.42 14.5L11.58 15.33C11.6 15.34 11.63 15.34 11.66 15.34C11.75 15.34 11.84 15.29 11.87 15.2C11.92 15.08 11.86 14.95 11.74 14.9L9.54 14.06L9.32 13.98C10.52 9.58 11.71 5.19 12.91 0.8C13.77 3.42 14.63 6.05 15.49 8.68C16.1 8.37 17.52 7.74 19.35 7.77L19.37 7.77C21.2 7.74 22.62 8.37 23.22 8.68C24.09 6.05 24.95 3.42 25.81 0.8C27 5.19 28.2 9.58 29.39 13.98L29.17 14.06L26.97 14.9C26.86 14.95 26.8 15.08 26.84 15.2C26.88 15.29 26.97 15.34 27.06 15.34C27.09 15.34 27.11 15.34 27.14 15.33L29.29 14.5L29.51 14.42C29.65 14.92 29.78 15.42 29.92 15.92L29.69 15.94L27.5 16.12C27.37 16.13 27.28 16.24 27.29 16.37C27.3 16.48 27.4 16.57 27.52 16.57L27.54 16.57L29.81 16.39L30.04 16.37C30.17 16.86 30.31 17.35 30.44 17.85L30.2 17.84L27.52 17.72C27.39 17.71 27.28 17.81 27.28 17.94C27.27 18.06 27.37 18.17 27.5 18.17L30.33 18.3L30.57 18.31C30.94 19.67 31.31 21.02 31.67 22.38C31.69 22.45 31.71 22.53 31.73 22.6L28.77 22.6Z" fill="#F4E041" fill-opacity="1.000000" fill-rule="nonzero"/>
	<path id="Vector" d="M32.03 22.83L31.97 22.61L31.91 22.38L30.81 18.32L30.57 18.31L30.33 18.3L31.43 22.37L28.51 22.37L28.54 22.63C28.65 23.41 28.42 24.17 27.95 24.72C27.86 24.82 27.76 24.92 27.65 25.01C27.62 25.03 27.59 25.06 27.55 25.08C27.49 25.14 27.41 25.18 27.34 25.23C27.22 25.3 27.09 25.36 26.95 25.41C26.72 25.49 26.48 25.53 26.25 25.54C26.17 25.54 26.09 25.54 26.01 25.53C25.94 25.53 25.86 25.52 25.78 25.51C25.24 25.42 24.73 25.16 24.34 24.75C23.7 24.07 23.67 23.23 23.68 22.89C23.68 22.79 23.69 22.71 23.69 22.62L23.72 22.37L14.99 22.37L15.02 22.62C15.03 22.71 15.03 22.79 15.03 22.9C15.05 23.23 15.01 24.07 14.37 24.75C13.98 25.16 13.47 25.42 12.93 25.51C12.86 25.52 12.78 25.53 12.7 25.53C12.63 25.54 12.55 25.54 12.47 25.54C12.23 25.53 11.99 25.49 11.77 25.41C11.63 25.36 11.5 25.3 11.38 25.23L11.38 25.23C11.3 25.19 11.23 25.14 11.16 25.08C11.13 25.06 11.09 25.03 11.06 25.01C10.95 24.92 10.86 24.82 10.77 24.72C10.3 24.17 10.06 23.41 10.17 22.63L10.21 22.37L7.28 22.37L8.39 18.3L8.15 18.31L7.91 18.32L6.8 22.38L6.74 22.61L6.68 22.83L9.69 22.83C9.61 24.17 10.39 25.41 11.61 25.84C12.67 26.21 13.92 25.9 14.71 25.06C15.47 24.25 15.51 23.27 15.5 22.89C15.5 22.87 15.49 22.85 15.49 22.83L23.22 22.83L23.22 22.88C23.2 23.27 23.25 24.25 24.01 25.06C24.58 25.66 25.38 25.99 26.18 25.99C26.49 25.99 26.8 25.94 27.1 25.84C28.32 25.41 29.1 24.17 29.03 22.83L32.03 22.83ZM8.67 16.37L8.44 16.35L8.03 17.86L8.27 17.85L8.51 17.84L8.91 16.39L8.67 16.37ZM25.83 0L25.59 0.73C24.87 2.92 24.15 5.11 23.43 7.3L23.09 8.35C22.21 7.95 20.91 7.52 19.37 7.54L19.35 7.54C17.8 7.52 16.5 7.95 15.63 8.35L15.28 7.3C14.56 5.11 13.84 2.92 13.13 0.73L12.88 0L9.11 13.89L9.33 13.98L9.54 14.06L12.93 1.6C13.57 3.55 14.21 5.49 14.84 7.44L15.35 9L15.59 8.88C16.42 8.46 17.74 7.97 19.35 8L19.37 8C20.98 7.97 22.3 8.46 23.12 8.88L23.36 9L23.87 7.44C24.51 5.49 25.15 3.55 25.79 1.6L29.17 14.06L29.39 13.98L29.61 13.89L25.83 0ZM8.99 14.34L8.56 15.9L8.8 15.92L9.03 15.94L9.42 14.5L9.2 14.42L8.99 14.34ZM29.73 14.34L29.51 14.42L29.3 14.5L29.69 15.94L29.92 15.92L30.15 15.9L29.73 14.34ZM30.27 16.35L30.04 16.37L29.81 16.39L30.2 17.84L30.44 17.85L30.68 17.86L30.27 16.35Z" fill="#000000" fill-opacity="0.870000" fill-rule="nonzero"/>
	<path id="Vector" d="M21.18 14.94C20.91 14.94 20.69 14.73 20.69 14.46L20.69 11.52C20.69 11.26 20.91 11.04 21.18 11.04C21.45 11.04 21.67 11.26 21.67 11.52L21.67 14.46C21.67 14.73 21.45 14.94 21.18 14.94Z" fill="#000000" fill-opacity="0.870000" fill-rule="nonzero"/>
	<path id="Vector" d="M17.82 14.43C17.55 14.46 17.31 14.27 17.28 14L17.04 11.78C17.02 11.52 17.21 11.28 17.48 11.25C17.75 11.22 17.99 11.41 18.02 11.68L18.26 13.9C18.28 14.16 18.09 14.4 17.82 14.43Z" fill="#000000" fill-opacity="0.870000" fill-rule="nonzero"/>
	<path id="Vector" d="M11.87 15.2C11.84 15.29 11.75 15.34 11.66 15.34C11.63 15.34 11.6 15.34 11.57 15.33L9.42 14.5L9.2 14.42L8.99 14.34L5.86 13.14C5.74 13.09 5.68 12.96 5.72 12.84C5.77 12.72 5.9 12.67 6.02 12.71L9.11 13.89L9.32 13.98L9.54 14.06L11.74 14.9C11.86 14.95 11.92 15.08 11.87 15.2Z" fill="#000000" fill-opacity="0.870000" fill-rule="nonzero"/>
	<path id="Vector" d="M11.43 16.37C11.42 16.48 11.32 16.57 11.2 16.57L11.18 16.57L8.91 16.39L8.67 16.37L8.44 16.35L5.07 16.07C4.94 16.06 4.85 15.95 4.86 15.82C4.87 15.7 4.98 15.6 5.11 15.61L8.56 15.9L8.79 15.92L9.03 15.94L11.22 16.12C11.34 16.13 11.44 16.24 11.43 16.37Z" fill="#000000" fill-opacity="0.870000" fill-rule="nonzero"/>
	<path id="Vector" d="M11.43 17.94C11.44 18.06 11.34 18.17 11.21 18.17L8.39 18.3L8.14 18.31L7.9 18.32L5.09 18.45L5.08 18.45C4.96 18.45 4.86 18.35 4.85 18.23C4.84 18.1 4.94 18 5.07 17.99L8.03 17.86L8.27 17.85L8.51 17.84L11.19 17.72C11.32 17.71 11.43 17.81 11.43 17.94Z" fill="#000000" fill-opacity="0.870000" fill-rule="nonzero"/>
	<path id="Vector" d="M32.86 13.14L29.72 14.34L29.51 14.42L29.29 14.5L27.14 15.33C27.11 15.34 27.08 15.34 27.06 15.34C26.96 15.34 26.88 15.29 26.84 15.2C26.79 15.08 26.85 14.95 26.97 14.9L29.17 14.06L29.39 13.98L29.6 13.89L32.69 12.71C32.81 12.67 32.94 12.72 32.99 12.84C33.03 12.96 32.98 13.09 32.86 13.14Z" fill="#000000" fill-opacity="0.870000" fill-rule="nonzero"/>
	<path id="Vector" d="M33.85 15.82C33.86 15.95 33.77 16.06 33.64 16.07L30.27 16.35L30.04 16.37L29.8 16.39L27.53 16.57L27.51 16.57C27.39 16.57 27.29 16.48 27.28 16.37C27.27 16.24 27.37 16.13 27.49 16.12L29.68 15.94L29.92 15.92L30.15 15.9L33.6 15.61C33.73 15.6 33.84 15.7 33.85 15.82Z" fill="#000000" fill-opacity="0.870000" fill-rule="nonzero"/>
	<path id="Vector" d="M33.86 18.23C33.85 18.35 33.75 18.45 33.63 18.45L33.62 18.45L30.81 18.32L30.57 18.31L30.32 18.3L27.5 18.17C27.37 18.17 27.27 18.06 27.28 17.94C27.28 17.81 27.39 17.71 27.52 17.72L30.2 17.84L30.44 17.85L30.68 17.86L33.64 17.99C33.77 18 33.87 18.1 33.86 18.23Z" fill="#000000" fill-opacity="0.870000" fill-rule="nonzero"/>
	<path id="Vector" d="M25.92 23.57C26 23.83 26.08 24.13 26.1 24.48C26.13 24.89 26.08 25.25 26.01 25.53L25.92 23.57Z" fill="#FFFFFF" fill-opacity="1.000000" fill-rule="nonzero"/>
	<path id="Vector" d="M26.01 25.76C25.99 25.76 25.97 25.76 25.96 25.76C25.83 25.73 25.76 25.6 25.79 25.48C25.87 25.15 25.9 24.82 25.87 24.5C25.86 24.21 25.8 23.93 25.7 23.65C25.66 23.53 25.72 23.4 25.84 23.36C25.96 23.32 26.09 23.38 26.13 23.5C26.24 23.82 26.31 24.14 26.33 24.47C26.36 24.84 26.33 25.22 26.23 25.59C26.21 25.69 26.11 25.76 26.01 25.76Z" fill="#000000" fill-opacity="0.870000" fill-rule="nonzero"/>
	<path id="Vector" d="M27.42 23.48C27.56 23.71 27.68 23.98 27.72 24.3C27.76 24.66 27.68 24.98 27.57 25.24L27.42 23.48Z" fill="#FFFFFF" fill-opacity="1.000000" fill-rule="nonzero"/>
	<path id="Vector" d="M27.57 25.47C27.54 25.47 27.5 25.46 27.47 25.45C27.36 25.4 27.3 25.26 27.36 25.15C27.48 24.87 27.52 24.6 27.49 24.32C27.46 24.08 27.37 23.84 27.22 23.6C27.15 23.5 27.19 23.36 27.29 23.29C27.4 23.22 27.54 23.26 27.61 23.36C27.8 23.66 27.91 23.96 27.95 24.27C27.99 24.62 27.93 24.98 27.78 25.33C27.74 25.42 27.66 25.47 27.57 25.47Z" fill="#000000" fill-opacity="0.870000" fill-rule="nonzero"/>
	<path id="Vector" d="M12.8 23.57C12.71 23.83 12.63 24.13 12.61 24.48C12.58 24.89 12.63 25.25 12.7 25.53L12.8 23.57Z" fill="#FFFFFF" fill-opacity="1.000000" fill-rule="nonzero"/>
	<path id="Vector" d="M12.7 25.76C12.6 25.76 12.51 25.69 12.48 25.59C12.39 25.22 12.35 24.84 12.38 24.46C12.4 24.14 12.47 23.82 12.58 23.5C12.62 23.38 12.75 23.32 12.87 23.36C12.99 23.4 13.06 23.53 13.01 23.65C12.92 23.93 12.86 24.21 12.84 24.5C12.81 24.82 12.84 25.15 12.93 25.48C12.96 25.6 12.88 25.72 12.76 25.75C12.74 25.76 12.72 25.76 12.7 25.76Z" fill="#000000" fill-opacity="0.870000" fill-rule="nonzero"/>
	<path id="Vector" d="M11.3 23.48C11.16 23.71 11.03 23.98 11 24.3C10.95 24.66 11.03 24.98 11.15 25.24L11.3 23.48Z" fill="#FFFFFF" fill-opacity="1.000000" fill-rule="nonzero"/>
	<path id="Vector" d="M11.15 25.47C11.06 25.47 10.97 25.42 10.94 25.33C10.78 24.98 10.72 24.62 10.77 24.27C10.81 23.96 10.92 23.66 11.1 23.36C11.17 23.26 11.31 23.22 11.42 23.29C11.53 23.36 11.56 23.5 11.49 23.6C11.34 23.84 11.25 24.08 11.22 24.32C11.19 24.6 11.23 24.87 11.36 25.15C11.41 25.26 11.36 25.4 11.24 25.45C11.21 25.46 11.18 25.47 11.15 25.47Z" fill="#000000" fill-opacity="0.870000" fill-rule="nonzero"/>
	<path id="Vector" d="M8.35 22.79L0.24 22.79C0.11 22.79 0 22.71 0 22.6C0 22.49 0.11 22.41 0.24 22.41L8.35 22.41C8.48 22.41 8.6 22.49 8.6 22.6C8.6 22.71 8.48 22.79 8.35 22.79Z" fill="#000000" fill-opacity="0.870000" fill-rule="nonzero"/>
	<path id="Vector" d="M37.88 22.83L30.25 22.83C30.13 22.83 30.02 22.73 30.02 22.61C30.02 22.48 30.13 22.38 30.25 22.38L37.88 22.38C38.01 22.38 38.11 22.48 38.11 22.61C38.11 22.73 38.01 22.83 37.88 22.83Z" fill="#000000" fill-opacity="0.870000" fill-rule="nonzero"/>
	<path id="Vector" d="M21.7 18.64C21.53 19.07 21.15 19.53 20.66 19.6C20.21 19.66 19.8 19.42 19.5 19.05C19.47 19.13 19.44 19.21 19.39 19.29C19.32 19.42 18.91 20.08 18.24 20.08L18.23 20.08C17.59 20.07 17.03 19.49 16.94 18.74C16.92 18.61 17.01 18.5 17.14 18.48C17.26 18.47 17.38 18.56 17.39 18.68C17.47 19.26 17.88 19.62 18.23 19.62L18.24 19.62C18.67 19.62 18.96 19.13 18.99 19.07C19.15 18.79 19.14 18.5 19.12 18.31C19.11 18.27 19.1 18.24 19.09 18.2C18.64 18.25 18.26 18.1 18.19 17.82C18.11 17.5 18.47 17.14 18.99 17.01C19.51 16.88 19.99 17.04 20.07 17.35C20.14 17.62 19.91 17.91 19.54 18.08C19.55 18.12 19.56 18.17 19.57 18.22C19.75 18.84 20.23 19.2 20.6 19.15C20.88 19.1 21.15 18.78 21.27 18.48C21.37 18.22 21.35 17.98 21.33 17.82C21.3 17.7 21.39 17.58 21.51 17.56C21.64 17.54 21.76 17.62 21.78 17.74C21.82 17.96 21.84 18.28 21.7 18.64Z" fill="#000000" fill-opacity="0.870000" fill-rule="nonzero"/>
	<path id="Vector" d="M43.8 18.58C43.41 18.58 43.21 18.47 43.21 18.26L43.21 9.33L40.38 9.33C40.28 9.33 40.21 9.3 40.16 9.23C40.11 9.16 40.08 9.04 40.08 8.89L40.08 8.65C40.08 8.49 40.11 8.38 40.16 8.31C40.21 8.24 40.28 8.21 40.38 8.21L47.3 8.21C47.41 8.21 47.48 8.24 47.52 8.31C47.57 8.38 47.59 8.49 47.59 8.65L47.59 8.89C47.59 9.04 47.57 9.16 47.52 9.23C47.48 9.3 47.41 9.33 47.3 9.33L44.51 9.33L44.51 18.26C44.51 18.47 44.31 18.58 43.92 18.58L43.8 18.58ZM49.78 18.55C49.62 18.55 49.5 18.52 49.44 18.45C49.37 18.38 49.33 18.27 49.33 18.11L49.33 8.65C49.33 8.49 49.37 8.38 49.44 8.31C49.5 8.24 49.62 8.21 49.78 8.21L54.92 8.21C55.03 8.21 55.11 8.24 55.15 8.31C55.2 8.38 55.22 8.49 55.22 8.65L55.22 8.89C55.22 9.04 55.2 9.16 55.15 9.23C55.11 9.3 55.03 9.33 54.92 9.33L50.63 9.33L50.63 12.7L54.48 12.7C54.59 12.7 54.66 12.73 54.7 12.8C54.75 12.87 54.78 12.99 54.78 13.14L54.78 13.38C54.78 13.54 54.75 13.65 54.7 13.72C54.66 13.79 54.59 13.82 54.48 13.82L50.63 13.82L50.63 17.43L54.94 17.43C55.05 17.43 55.12 17.46 55.16 17.53C55.21 17.6 55.23 17.72 55.23 17.87L55.23 18.11C55.23 18.27 55.21 18.38 55.16 18.45C55.12 18.52 55.05 18.55 54.94 18.55L49.78 18.55ZM59.54 18.64C58.95 18.64 58.41 18.57 57.9 18.44C57.4 18.3 57.02 18.13 56.77 17.93C56.58 17.79 56.49 17.67 56.49 17.56C56.49 17.45 56.55 17.28 56.68 17.08C56.82 16.87 56.92 16.77 57 16.77C57.04 16.77 57.15 16.81 57.31 16.91C57.62 17.08 57.94 17.22 58.29 17.34C58.64 17.46 59.06 17.52 59.54 17.52C60.11 17.52 60.57 17.36 60.93 17.05C61.29 16.72 61.47 16.3 61.47 15.77C61.47 15.41 61.38 15.11 61.18 14.87C60.98 14.63 60.74 14.43 60.46 14.3C60.18 14.15 59.78 13.97 59.25 13.76C58.68 13.54 58.22 13.33 57.89 13.14C57.55 12.96 57.27 12.68 57.03 12.32C56.8 11.94 56.68 11.45 56.68 10.85C56.68 10.32 56.81 9.85 57.08 9.43C57.35 9.02 57.74 8.7 58.23 8.47C58.73 8.24 59.31 8.12 59.95 8.12C60.29 8.12 60.66 8.17 61.08 8.27C61.49 8.35 61.81 8.48 62.03 8.64C62.23 8.75 62.33 8.88 62.33 9.02C62.33 9.13 62.27 9.29 62.14 9.49C62.02 9.7 61.93 9.8 61.86 9.8C61.81 9.8 61.73 9.78 61.64 9.73C61.55 9.68 61.49 9.65 61.46 9.63C60.97 9.37 60.46 9.24 59.92 9.24C59.35 9.24 58.89 9.39 58.54 9.68C58.19 9.98 58.02 10.39 58.02 10.91C58.02 11.25 58.1 11.52 58.27 11.72C58.45 11.93 58.65 12.09 58.86 12.2C59.09 12.3 59.48 12.45 60.03 12.67C60.62 12.9 61.1 13.12 61.47 13.34C61.85 13.54 62.16 13.85 62.42 14.25C62.68 14.65 62.82 15.15 62.82 15.77C62.82 16.66 62.52 17.36 61.93 17.87C61.34 18.39 60.54 18.64 59.54 18.64ZM67.33 18.58C66.94 18.58 66.74 18.47 66.74 18.26L66.74 9.33L63.91 9.33C63.81 9.33 63.74 9.3 63.69 9.23C63.64 9.16 63.61 9.04 63.61 8.89L63.61 8.65C63.61 8.49 63.64 8.38 63.69 8.31C63.74 8.24 63.81 8.21 63.91 8.21L70.83 8.21C70.94 8.21 71.01 8.24 71.05 8.31C71.1 8.38 71.12 8.49 71.12 8.65L71.12 8.89C71.12 9.04 71.1 9.16 71.05 9.23C71.01 9.3 70.94 9.33 70.83 9.33L68.04 9.33L68.04 18.26C68.04 18.47 67.84 18.58 67.45 18.58L67.33 18.58ZM75.43 18.58C75.04 18.58 74.84 18.47 74.84 18.26L74.84 9.33L72.01 9.33C71.91 9.33 71.83 9.3 71.78 9.23C71.74 9.16 71.71 9.04 71.71 8.89L71.71 8.65C71.71 8.49 71.74 8.38 71.78 8.31C71.83 8.24 71.91 8.21 72.01 8.21L78.93 8.21C79.03 8.21 79.11 8.24 79.15 8.31C79.2 8.38 79.22 8.49 79.22 8.65L79.22 8.89C79.22 9.04 79.2 9.16 79.15 9.23C79.11 9.3 79.03 9.33 78.93 9.33L76.14 9.33L76.14 18.26C76.14 18.47 75.94 18.58 75.55 18.58L75.43 18.58ZM79.73 18.58C79.31 18.58 79.1 18.5 79.1 18.33C79.1 18.28 79.11 18.21 79.14 18.12L82.64 8.41C82.7 8.26 82.9 8.18 83.23 8.18L83.66 8.18C84.01 8.18 84.21 8.26 84.25 8.41L87.75 18.14C87.78 18.21 87.79 18.27 87.79 18.33C87.79 18.5 87.58 18.58 87.16 18.58L87.04 18.58C86.69 18.58 86.5 18.5 86.45 18.35L85.58 15.92L81.24 15.92L80.4 18.35C80.35 18.5 80.15 18.58 79.81 18.58L79.73 18.58ZM85.18 14.8L83.63 10.39C83.58 10.24 83.52 9.95 83.45 9.54L83.42 9.54C83.34 9.93 83.27 10.22 83.2 10.39L81.65 14.8L85.18 14.8ZM91.57 18.64C90.98 18.64 90.44 18.57 89.93 18.44C89.43 18.3 89.05 18.13 88.8 17.93C88.61 17.79 88.52 17.67 88.52 17.56C88.52 17.45 88.58 17.28 88.71 17.08C88.85 16.87 88.96 16.77 89.03 16.77C89.07 16.77 89.18 16.81 89.34 16.91C89.65 17.08 89.97 17.22 90.32 17.34C90.67 17.46 91.09 17.52 91.57 17.52C92.14 17.52 92.6 17.36 92.96 17.05C93.32 16.72 93.5 16.3 93.5 15.77C93.5 15.41 93.41 15.11 93.21 14.87C93.01 14.63 92.77 14.43 92.49 14.3C92.21 14.15 91.81 13.97 91.28 13.76C90.71 13.54 90.25 13.33 89.92 13.14C89.58 12.96 89.3 12.68 89.06 12.32C88.83 11.94 88.71 11.45 88.71 10.85C88.71 10.32 88.84 9.85 89.11 9.43C89.38 9.02 89.77 8.7 90.26 8.47C90.76 8.24 91.34 8.12 91.99 8.12C92.32 8.12 92.69 8.17 93.11 8.27C93.52 8.35 93.84 8.48 94.07 8.64C94.26 8.75 94.36 8.88 94.36 9.02C94.36 9.13 94.3 9.29 94.17 9.49C94.05 9.7 93.96 9.8 93.89 9.8C93.84 9.8 93.77 9.78 93.67 9.73C93.58 9.68 93.52 9.65 93.49 9.63C93 9.37 92.49 9.24 91.96 9.24C91.38 9.24 90.92 9.39 90.57 9.68C90.22 9.98 90.05 10.39 90.05 10.91C90.05 11.25 90.14 11.52 90.3 11.72C90.48 11.93 90.68 12.09 90.89 12.2C91.12 12.3 91.51 12.45 92.06 12.67C92.65 12.9 93.13 13.12 93.5 13.34C93.88 13.54 94.19 13.85 94.45 14.25C94.71 14.65 94.85 15.15 94.85 15.77C94.85 16.66 94.55 17.36 93.96 17.87C93.37 18.39 92.58 18.64 91.57 18.64ZM97.37 18.58C96.98 18.58 96.78 18.47 96.78 18.26L96.78 8.5C96.78 8.29 96.98 8.18 97.37 8.18L97.49 8.18C97.88 8.18 98.08 8.29 98.08 8.5L98.08 13.03L98.14 13.03L101.77 8.38C101.88 8.25 102.14 8.18 102.56 8.18L102.71 8.18C102.88 8.18 103.01 8.2 103.1 8.24C103.18 8.27 103.23 8.31 103.23 8.37C103.23 8.46 103.18 8.56 103.08 8.66L99.39 13.28L103.86 18.14C103.95 18.24 104 18.32 104 18.38C104 18.45 103.95 18.51 103.85 18.54C103.75 18.57 103.58 18.58 103.35 18.58L103.17 18.58C102.95 18.58 102.78 18.57 102.65 18.55C102.54 18.53 102.44 18.48 102.36 18.39L98.14 13.63L98.08 13.63L98.08 18.26C98.08 18.47 97.88 18.58 97.49 18.58L97.37 18.58Z" fill="#000000" fill-opacity="0.870000" fill-rule="nonzero"/>
</svg>
